<mxfile host="app.diagrams.net" modified="2024-06-09T04:30:06.720Z" agent="Mozilla/5.0 (Windows NT 10.0; Win64; x64; rv:126.0) Gecko/20100101 Firefox/126.0" etag="SdPLK3YeaUsx5KlH2SE6" version="24.5.2" type="github">
  <diagram id="C5RBs43oDa-KdzZeNtuy" name="Page-1">
    <mxGraphModel dx="1316" dy="822" grid="1" gridSize="10" guides="1" tooltips="1" connect="1" arrows="1" fold="1" page="1" pageScale="1" pageWidth="827" pageHeight="1169" math="0" shadow="0">
      <root>
        <mxCell id="WIyWlLk6GJQsqaUBKTNV-0" />
        <mxCell id="WIyWlLk6GJQsqaUBKTNV-1" parent="WIyWlLk6GJQsqaUBKTNV-0" />
        <mxCell id="PK9Mwoqlpw54ZULxrit6-4" value="Field" style="rounded=0;whiteSpace=wrap;html=1;" vertex="1" parent="WIyWlLk6GJQsqaUBKTNV-1">
          <mxGeometry x="40" y="40" width="120" height="60" as="geometry" />
        </mxCell>
        <mxCell id="PK9Mwoqlpw54ZULxrit6-5" value="value: str" style="text;html=1;strokeColor=none;fillColor=none;align=left;verticalAlign=top;whiteSpace=wrap;rounded=0;" vertex="1" parent="PK9Mwoqlpw54ZULxrit6-4">
          <mxGeometry width="120" height="30" as="geometry" />
        </mxCell>
        <mxCell id="PK9Mwoqlpw54ZULxrit6-6" value="__init__(value: str)" style="text;html=1;strokeColor=none;fillColor=none;align=left;verticalAlign=top;whiteSpace=wrap;rounded=0;" vertex="1" parent="PK9Mwoqlpw54ZULxrit6-4">
          <mxGeometry y="30" width="120" height="30" as="geometry" />
        </mxCell>
        <mxCell id="PK9Mwoqlpw54ZULxrit6-7" value="__str__() -&gt; str" style="text;html=1;strokeColor=none;fillColor=none;align=left;verticalAlign=top;whiteSpace=wrap;rounded=0;" vertex="1" parent="PK9Mwoqlpw54ZULxrit6-4">
          <mxGeometry y="60" width="120" height="30" as="geometry" />
        </mxCell>
        <mxCell id="PK9Mwoqlpw54ZULxrit6-8" value="Name" style="rounded=0;whiteSpace=wrap;html=1;" vertex="1" parent="WIyWlLk6GJQsqaUBKTNV-1">
          <mxGeometry x="40" y="210" width="120" height="60" as="geometry" />
        </mxCell>
        <mxCell id="PK9Mwoqlpw54ZULxrit6-9" value="__init__(name: str)" style="text;html=1;strokeColor=none;fillColor=none;align=left;verticalAlign=top;whiteSpace=wrap;rounded=0;" vertex="1" parent="PK9Mwoqlpw54ZULxrit6-8">
          <mxGeometry width="120" height="30" as="geometry" />
        </mxCell>
        <mxCell id="PK9Mwoqlpw54ZULxrit6-10" value="Phone" style="rounded=0;whiteSpace=wrap;html=1;" vertex="1" parent="WIyWlLk6GJQsqaUBKTNV-1">
          <mxGeometry x="240" y="40" width="120" height="60" as="geometry" />
        </mxCell>
        <mxCell id="PK9Mwoqlpw54ZULxrit6-11" value="__init__(phone: str)" style="text;html=1;strokeColor=none;fillColor=none;align=left;verticalAlign=top;whiteSpace=wrap;rounded=0;" vertex="1" parent="PK9Mwoqlpw54ZULxrit6-10">
          <mxGeometry width="120" height="30" as="geometry" />
        </mxCell>
        <mxCell id="PK9Mwoqlpw54ZULxrit6-12" value="Birthday" style="rounded=0;whiteSpace=wrap;html=1;" vertex="1" parent="WIyWlLk6GJQsqaUBKTNV-1">
          <mxGeometry x="240" y="150" width="120" height="60" as="geometry" />
        </mxCell>
        <mxCell id="PK9Mwoqlpw54ZULxrit6-13" value="__init__(value: str)" style="text;html=1;strokeColor=none;fillColor=none;align=left;verticalAlign=top;whiteSpace=wrap;rounded=0;" vertex="1" parent="PK9Mwoqlpw54ZULxrit6-12">
          <mxGeometry width="120" height="30" as="geometry" />
        </mxCell>
        <mxCell id="PK9Mwoqlpw54ZULxrit6-14" value="Record" style="rounded=0;whiteSpace=wrap;html=1;" vertex="1" parent="WIyWlLk6GJQsqaUBKTNV-1">
          <mxGeometry x="40" y="530" width="120" height="90" as="geometry" />
        </mxCell>
        <mxCell id="PK9Mwoqlpw54ZULxrit6-15" value="name: Name" style="text;html=1;strokeColor=none;fillColor=none;align=left;verticalAlign=top;whiteSpace=wrap;rounded=0;" vertex="1" parent="PK9Mwoqlpw54ZULxrit6-14">
          <mxGeometry width="120" height="30" as="geometry" />
        </mxCell>
        <mxCell id="PK9Mwoqlpw54ZULxrit6-16" value="phones: list[Phone]" style="text;html=1;strokeColor=none;fillColor=none;align=left;verticalAlign=top;whiteSpace=wrap;rounded=0;" vertex="1" parent="PK9Mwoqlpw54ZULxrit6-14">
          <mxGeometry y="30" width="120" height="30" as="geometry" />
        </mxCell>
        <mxCell id="PK9Mwoqlpw54ZULxrit6-17" value="birthday: Birthday | None" style="text;html=1;strokeColor=none;fillColor=none;align=left;verticalAlign=top;whiteSpace=wrap;rounded=0;" vertex="1" parent="PK9Mwoqlpw54ZULxrit6-14">
          <mxGeometry y="60" width="120" height="30" as="geometry" />
        </mxCell>
        <mxCell id="PK9Mwoqlpw54ZULxrit6-18" value="AddressBook" style="rounded=0;whiteSpace=wrap;html=1;" vertex="1" parent="WIyWlLk6GJQsqaUBKTNV-1">
          <mxGeometry x="600" y="240" width="130" height="200" as="geometry" />
        </mxCell>
        <mxCell id="PK9Mwoqlpw54ZULxrit6-19" value="add_record(record: Record)" style="text;html=1;strokeColor=none;fillColor=none;align=left;verticalAlign=top;whiteSpace=wrap;rounded=0;" vertex="1" parent="PK9Mwoqlpw54ZULxrit6-18">
          <mxGeometry width="130" height="100" as="geometry" />
        </mxCell>
        <mxCell id="PK9Mwoqlpw54ZULxrit6-20" value="find(name: str) -&gt; Record | None" style="text;html=1;strokeColor=none;fillColor=none;align=left;verticalAlign=top;whiteSpace=wrap;rounded=0;" vertex="1" parent="PK9Mwoqlpw54ZULxrit6-18">
          <mxGeometry y="100" width="130" height="100" as="geometry" />
        </mxCell>
        <mxCell id="PK9Mwoqlpw54ZULxrit6-21" value="delete(name: str)" style="text;html=1;strokeColor=none;fillColor=none;align=left;verticalAlign=top;whiteSpace=wrap;rounded=0;" vertex="1" parent="PK9Mwoqlpw54ZULxrit6-18">
          <mxGeometry y="200" width="130" height="100" as="geometry" />
        </mxCell>
        <mxCell id="PK9Mwoqlpw54ZULxrit6-22" value="get_upcoming_birthdays() -&gt; list[dict[str, str]]" style="text;html=1;strokeColor=none;fillColor=none;align=left;verticalAlign=top;whiteSpace=wrap;rounded=0;" vertex="1" parent="PK9Mwoqlpw54ZULxrit6-18">
          <mxGeometry y="300" width="130" height="100" as="geometry" />
        </mxCell>
        <mxCell id="PK9Mwoqlpw54ZULxrit6-23" style="edgeStyle=orthogonalEdgeStyle;rounded=0;orthogonalLoop=1;jettySize=auto;html=1;" edge="1" parent="WIyWlLk6GJQsqaUBKTNV-1" source="PK9Mwoqlpw54ZULxrit6-8" target="PK9Mwoqlpw54ZULxrit6-4">
          <mxGeometry relative="1" as="geometry" />
        </mxCell>
        <mxCell id="PK9Mwoqlpw54ZULxrit6-24" style="edgeStyle=orthogonalEdgeStyle;rounded=0;orthogonalLoop=1;jettySize=auto;html=1;" edge="1" parent="WIyWlLk6GJQsqaUBKTNV-1" source="PK9Mwoqlpw54ZULxrit6-10" target="PK9Mwoqlpw54ZULxrit6-4">
          <mxGeometry relative="1" as="geometry" />
        </mxCell>
        <mxCell id="PK9Mwoqlpw54ZULxrit6-25" style="edgeStyle=orthogonalEdgeStyle;rounded=0;orthogonalLoop=1;jettySize=auto;html=1;" edge="1" parent="WIyWlLk6GJQsqaUBKTNV-1" source="PK9Mwoqlpw54ZULxrit6-12" target="PK9Mwoqlpw54ZULxrit6-4">
          <mxGeometry relative="1" as="geometry" />
        </mxCell>
        <mxCell id="PK9Mwoqlpw54ZULxrit6-26" style="edgeStyle=orthogonalEdgeStyle;rounded=0;orthogonalLoop=1;jettySize=auto;html=1;" edge="1" parent="WIyWlLk6GJQsqaUBKTNV-1" source="PK9Mwoqlpw54ZULxrit6-14" target="PK9Mwoqlpw54ZULxrit6-8">
          <mxGeometry relative="1" as="geometry" />
        </mxCell>
        <mxCell id="PK9Mwoqlpw54ZULxrit6-27" style="edgeStyle=orthogonalEdgeStyle;rounded=0;orthogonalLoop=1;jettySize=auto;html=1;" edge="1" parent="WIyWlLk6GJQsqaUBKTNV-1" source="PK9Mwoqlpw54ZULxrit6-29" target="PK9Mwoqlpw54ZULxrit6-10">
          <mxGeometry relative="1" as="geometry" />
        </mxCell>
        <mxCell id="PK9Mwoqlpw54ZULxrit6-28" style="edgeStyle=orthogonalEdgeStyle;rounded=0;orthogonalLoop=1;jettySize=auto;html=1;" edge="1" parent="WIyWlLk6GJQsqaUBKTNV-1" source="PK9Mwoqlpw54ZULxrit6-14" target="PK9Mwoqlpw54ZULxrit6-12">
          <mxGeometry relative="1" as="geometry">
            <Array as="points">
              <mxPoint x="100" y="525" />
              <mxPoint x="300" y="525" />
            </Array>
          </mxGeometry>
        </mxCell>
        <mxCell id="PK9Mwoqlpw54ZULxrit6-30" style="edgeStyle=orthogonalEdgeStyle;rounded=0;orthogonalLoop=1;jettySize=auto;html=1;" edge="1" parent="WIyWlLk6GJQsqaUBKTNV-1" source="PK9Mwoqlpw54ZULxrit6-18" target="PK9Mwoqlpw54ZULxrit6-29">
          <mxGeometry relative="1" as="geometry" />
        </mxCell>
        <mxCell id="PK9Mwoqlpw54ZULxrit6-32" value="" style="edgeStyle=orthogonalEdgeStyle;rounded=0;orthogonalLoop=1;jettySize=auto;html=1;" edge="1" parent="WIyWlLk6GJQsqaUBKTNV-1" source="PK9Mwoqlpw54ZULxrit6-14" target="PK9Mwoqlpw54ZULxrit6-29">
          <mxGeometry relative="1" as="geometry">
            <mxPoint x="230" y="255" as="sourcePoint" />
            <mxPoint x="470" y="150" as="targetPoint" />
          </mxGeometry>
        </mxCell>
        <mxCell id="PK9Mwoqlpw54ZULxrit6-29" value="UserDict" style="rounded=0;whiteSpace=wrap;html=1;" vertex="1" parent="WIyWlLk6GJQsqaUBKTNV-1">
          <mxGeometry x="450" y="40" width="120" height="60" as="geometry" />
        </mxCell>
      </root>
    </mxGraphModel>
  </diagram>
</mxfile>
